<svg xmlns="http://www.w3.org/2000/svg" width="25" height="25" viewBox="0 0 25 25" fill="none">
  <g clip-path="url(#clip0_1170_6233)">
    <path fill-rule="evenodd" clip-rule="evenodd" d="M13.9291 2.52894C15.506 0.450544 17.6983 0.44043 17.6983 0.44043C17.6983 0.44043 18.0243 2.39446 16.4578 4.27683C14.7851 6.28683 12.8838 5.95794 12.8838 5.95794C12.8838 5.95794 12.5268 4.3772 13.9291 2.52894ZM13.0844 7.32672C13.8956 7.32672 15.4012 6.21157 17.361 6.21157C20.7344 6.21157 22.0616 8.612 22.0616 8.612C22.0616 8.612 19.466 9.93903 19.466 13.1591C19.466 16.7915 22.6994 18.0435 22.6994 18.0435C22.6994 18.0435 20.4391 24.4052 17.3861 24.4052C15.9839 24.4052 14.8938 23.4603 13.4163 23.4603C11.9108 23.4603 10.4167 24.4404 9.44348 24.4404C6.65571 24.4405 3.13371 18.4057 3.13371 13.5548C3.13371 8.78214 6.11485 6.27843 8.91102 6.27843C10.7288 6.27843 12.1394 7.32672 13.0844 7.32672Z" fill="#737373"/>
  </g>
  <defs>
    <clipPath id="clip0_1170_6233">
      <rect width="24" height="24" fill="white" transform="translate(0.91655 0.44043)"/>
    </clipPath>
  </defs>
</svg>