<svg width="18" height="19" viewBox="0 0 18 19" fill="none" xmlns="http://www.w3.org/2000/svg">
  <path fill-rule="evenodd" clip-rule="evenodd" d="M11.3668 6.90716C11.0714 6.61176 10.5924 6.61176 10.297 6.90716L9 8.20419L7.70298 6.90716C7.40757 6.61176 6.92863 6.61176 6.63323 6.90716C6.33783 7.20256 6.33783 7.68151 6.63323 7.97691L7.93026 9.27393L6.63323 10.5709C6.33783 10.8663 6.33783 11.3453 6.63323 11.6407C6.92863 11.9361 7.40757 11.9361 7.70298 11.6407L9 10.3437L10.297 11.6407C10.5924 11.9361 11.0714 11.9361 11.3668 11.6407C11.6622 11.3453 11.6622 10.8663 11.3668 10.5709L10.0698 9.27393L11.3668 7.97691C11.6622 7.6815 11.6622 7.20256 11.3668 6.90716ZM9 0.273926C4.02944 0.273926 0 4.30337 0 9.27393C0 14.2445 4.02944 18.2739 9 18.2739C13.9706 18.2739 18 14.2445 18 9.27393C18 4.30337 13.9706 0.273926 9 0.273926ZM1.51285 9.27393C1.51285 5.13889 4.86496 1.78678 9 1.78678C13.135 1.78678 16.4872 5.13889 16.4872 9.27393C16.4872 13.4089 13.135 16.7611 9 16.7611C4.86496 16.7611 1.51285 13.4089 1.51285 9.27393Z" fill="#00335E"/>
</svg>