<svg xmlns="http://www.w3.org/2000/svg" width="30" height="30" viewBox="0 0 30 30" fill="none">
  <path fill-rule="evenodd" clip-rule="evenodd" d="M22.35 13.04C21.67 9.59 18.64 7 15 7C12.11 7 9.6 8.64 8.35 11.04C5.34 11.36 3 13.91 3 17C3 20.31 5.69 23 9 23H22C24.76 23 27 20.76 27 18C27 15.36 24.95 13.22 22.35 13.04ZM13.71 19.29C13.32 19.68 12.69 19.68 12.3 19.29L10.2 17.2C10.0127 17.0132 9.90751 16.7595 9.90751 16.495C9.90751 16.2305 10.0127 15.9768 10.2 15.79C10.59 15.4 11.22 15.4 11.61 15.79L13 17.18L17.48 12.7C17.87 12.31 18.5 12.31 18.89 12.7C19.28 13.09 19.28 13.72 18.89 14.11L13.71 19.29Z" fill="#33BFFF"/>
</svg>