<svg xmlns="http://www.w3.org/2000/svg" width="27" height="27" viewBox="0 0 27 27" fill="none">
  <path fill-rule="evenodd" clip-rule="evenodd" d="M1.7998 7.32993C1.7998 6.79278 2.23525 6.35732 2.77241 6.35732H11.2051C11.7422 6.35732 12.1777 6.79278 12.1777 7.32993C12.1777 7.86709 11.7422 8.30254 11.2051 8.30254H2.77241C2.23525 8.30254 1.7998 7.86709 1.7998 7.32993ZM25.1998 19.3983C25.1998 19.9354 24.7643 20.3708 24.2271 20.3708H15.7946C15.2574 20.3708 14.8219 19.9354 14.8219 19.3983C14.8219 18.8611 15.2574 18.4256 15.7946 18.4256H24.2271C24.7643 18.4256 25.1998 18.8611 25.1998 19.3983ZM19.5339 3.60952C17.4791 3.60952 15.8133 5.2753 15.8133 7.33015C15.8133 9.38501 17.4791 11.0508 19.5339 11.0508C21.5888 11.0508 23.2546 9.38501 23.2546 7.33015C23.2546 5.2753 21.5888 3.60952 19.5339 3.60952ZM13.8681 7.33015C13.8681 4.201 16.4048 1.66431 19.5339 1.66431C22.6631 1.66431 25.1998 4.201 25.1998 7.33015C25.1998 10.4593 22.6631 12.996 19.5339 12.996C16.4048 12.996 13.8681 10.4593 13.8681 7.33015ZM7.46567 15.6778C9.52052 15.6778 11.1863 17.3436 11.1863 19.3985C11.1863 21.4533 9.52052 23.1191 7.46567 23.1191C5.41083 23.1191 3.74505 21.4533 3.74505 19.3985C3.74505 17.3436 5.41083 15.6778 7.46567 15.6778ZM13.1315 19.3985C13.1315 16.2693 10.5948 13.7326 7.46567 13.7326C4.33652 13.7326 1.79983 16.2693 1.79983 19.3985C1.79983 22.5276 4.33652 25.0643 7.46567 25.0643C10.5948 25.0643 13.1315 22.5276 13.1315 19.3985Z" fill="#B0B0B0"/>
</svg>