<svg xmlns="http://www.w3.org/2000/svg" width="25" height="25" viewBox="0 0 25 25" fill="none">
  <g clip-path="url(#clip0_1170_6231)">
    <path d="M24.2659 12.7167C24.2659 11.901 24.1997 11.0808 24.0586 10.2783H12.7399V14.8993H19.2216C18.9526 16.3897 18.0884 17.708 16.8229 18.5458V21.5442H20.6899C22.9607 19.4541 24.2659 16.3676 24.2659 12.7167Z" fill="#4285F4"/>
    <path d="M12.7399 24.4413C15.9763 24.4413 18.7057 23.3786 20.6943 21.5443L16.8273 18.546C15.7514 19.2779 14.3625 19.6924 12.7443 19.6924C9.61364 19.6924 6.95922 17.5803 6.0068 14.7407H2.01636V17.8317C4.05347 21.8838 8.20265 24.4413 12.7399 24.4413Z" fill="#34A853"/>
    <path d="M6.00241 14.7406C5.49974 13.2503 5.49974 11.6365 6.00241 10.1461V7.05518H2.01637C0.314368 10.446 0.314368 14.4408 2.01637 17.8316L6.00241 14.7406Z" fill="#FBBC04"/>
    <path d="M12.7399 5.19009C14.4507 5.16363 16.1042 5.8074 17.3432 6.9891L20.7693 3.56305C18.5999 1.52593 15.7206 0.405964 12.7399 0.441238C8.20265 0.441238 4.05347 2.99865 2.01636 7.05524L6.00239 10.1462C6.9504 7.30216 9.60923 5.19009 12.7399 5.19009Z" fill="#EA4335"/>
  </g>
  <defs>
    <clipPath id="clip0_1170_6231">
      <rect width="24" height="24" fill="white" transform="translate(0.499878 0.44043)"/>
    </clipPath>
  </defs>
</svg>