<svg width="21" height="20" viewBox="0 0 21 20" fill="none" xmlns="http://www.w3.org/2000/svg">
  <path d="M10.3511 1.80078C13.023 1.80078 13.3394 1.8125 14.3901 1.85937C15.3667 1.90234 15.894 2.06641 16.2456 2.20313C16.7105 2.38281 17.0464 2.60156 17.394 2.94922C17.7456 3.30078 17.9605 3.63281 18.1401 4.09766C18.2769 4.44922 18.4409 4.98047 18.4839 5.95312C18.5308 7.00781 18.5425 7.32422 18.5425 9.99219C18.5425 12.6641 18.5308 12.9805 18.4839 14.0313C18.4409 15.0078 18.2769 15.5352 18.1401 15.8867C17.9605 16.3516 17.7417 16.6875 17.394 17.0352C17.0425 17.3867 16.7105 17.6016 16.2456 17.7813C15.894 17.918 15.3628 18.082 14.3901 18.125C13.3355 18.1719 13.019 18.1836 10.3511 18.1836C7.6792 18.1836 7.36279 18.1719 6.31201 18.125C5.33545 18.082 4.80811 17.918 4.45654 17.7813C3.9917 17.6016 3.65576 17.3828 3.30811 17.0352C2.95654 16.6836 2.7417 16.3516 2.56201 15.8867C2.42529 15.5352 2.26123 15.0039 2.21826 14.0313C2.17139 12.9766 2.15967 12.6602 2.15967 9.99219C2.15967 7.32031 2.17139 7.00391 2.21826 5.95312C2.26123 4.97656 2.42529 4.44922 2.56201 4.09766C2.7417 3.63281 2.96045 3.29688 3.30811 2.94922C3.65967 2.59766 3.9917 2.38281 4.45654 2.20313C4.80811 2.06641 5.33936 1.90234 6.31201 1.85937C7.36279 1.8125 7.6792 1.80078 10.3511 1.80078ZM10.3511 0C7.63623 0 7.29639 0.0117187 6.22998 0.0585938C5.16748 0.105469 4.43701 0.277344 3.8042 0.523438C3.14404 0.78125 2.58545 1.12109 2.03076 1.67969C1.47217 2.23438 1.13232 2.79297 0.874512 3.44922C0.628418 4.08594 0.456543 4.8125 0.409668 5.875C0.362793 6.94531 0.351074 7.28516 0.351074 10C0.351074 12.7148 0.362793 13.0547 0.409668 14.1211C0.456543 15.1836 0.628418 15.9141 0.874512 16.5469C1.13232 17.207 1.47217 17.7656 2.03076 18.3203C2.58545 18.875 3.14404 19.2188 3.80029 19.4727C4.43701 19.7188 5.16357 19.8906 6.22607 19.9375C7.29248 19.9844 7.63232 19.9961 10.3472 19.9961C13.062 19.9961 13.4019 19.9844 14.4683 19.9375C15.5308 19.8906 16.2612 19.7188 16.894 19.4727C17.5503 19.2188 18.1089 18.875 18.6636 18.3203C19.2183 17.7656 19.562 17.207 19.8159 16.5508C20.062 15.9141 20.2339 15.1875 20.2808 14.125C20.3276 13.0586 20.3394 12.7188 20.3394 10.0039C20.3394 7.28906 20.3276 6.94922 20.2808 5.88281C20.2339 4.82031 20.062 4.08984 19.8159 3.45703C19.5698 2.79297 19.23 2.23438 18.6714 1.67969C18.1167 1.125 17.5581 0.78125 16.9019 0.527344C16.2651 0.28125 15.5386 0.109375 14.4761 0.0625C13.4058 0.0117188 13.0659 0 10.3511 0Z" fill="#98A2B3"/>
  <path d="M10.3511 4.86328C7.51514 4.86328 5.21436 7.16406 5.21436 10C5.21436 12.8359 7.51514 15.1367 10.3511 15.1367C13.187 15.1367 15.4878 12.8359 15.4878 10C15.4878 7.16406 13.187 4.86328 10.3511 4.86328ZM10.3511 13.332C8.51123 13.332 7.01904 11.8398 7.01904 10C7.01904 8.16016 8.51123 6.66797 10.3511 6.66797C12.1909 6.66797 13.6831 8.16016 13.6831 10C13.6831 11.8398 12.1909 13.332 10.3511 13.332Z" fill="#98A2B3"/>
  <path d="M16.8901 4.66016C16.8901 5.32422 16.3511 5.85938 15.6909 5.85938C15.0269 5.85938 14.4917 5.32031 14.4917 4.66016C14.4917 3.99609 15.0308 3.46094 15.6909 3.46094C16.3511 3.46094 16.8901 4 16.8901 4.66016Z" fill="#98A2B3"/>
</svg>