<svg xmlns="http://www.w3.org/2000/svg" width="25" height="25" viewBox="0 0 25 25" fill="none">
  <g clip-path="url(#clip0_1170_6226)">
    <path d="M12.089 0.62207C7.15428 0.62207 5.71105 0.627161 5.43052 0.650434C4.41782 0.734616 3.78766 0.89407 3.10113 1.23589C2.57206 1.49862 2.1548 1.80316 1.74299 2.23007C0.993014 3.00862 0.538482 3.96643 0.373941 5.10498C0.293944 5.65771 0.270672 5.77043 0.265945 8.59371C0.264127 9.5348 0.265945 10.7733 0.265945 12.4346C0.265945 17.3655 0.271399 18.8073 0.295035 19.0873C0.37685 20.0728 0.531391 20.6928 0.858654 21.371C1.48409 22.6692 2.6786 23.6437 4.08583 24.0073C4.57309 24.1328 5.11125 24.2019 5.80214 24.2346C6.09486 24.2473 9.0784 24.2564 12.0638 24.2564C15.0491 24.2564 18.0345 24.2528 18.3199 24.2383C19.1199 24.2006 19.5844 24.1383 20.0981 24.0055C21.5144 23.6401 22.6871 22.6801 23.3252 21.3637C23.6461 20.7019 23.8089 20.0583 23.8825 19.1243C23.8985 18.9206 23.9052 15.6739 23.9052 12.4315C23.9052 9.18862 23.898 5.94789 23.882 5.74425C23.8074 4.79516 23.6447 4.15698 23.3134 3.48243C23.0416 2.93025 22.7398 2.51789 22.3016 2.09625C21.5197 1.34934 20.5633 0.894798 19.4237 0.730434C18.8716 0.650616 18.7616 0.626979 15.9362 0.62207H12.089Z" fill="url(#paint0_radial_1170_6226)"/>
    <path d="M12.089 0.62207C7.15428 0.62207 5.71105 0.627161 5.43052 0.650434C4.41782 0.734616 3.78766 0.89407 3.10113 1.23589C2.57206 1.49862 2.1548 1.80316 1.74299 2.23007C0.993014 3.00862 0.538482 3.96643 0.373941 5.10498C0.293944 5.65771 0.270672 5.77043 0.265945 8.59371C0.264127 9.5348 0.265945 10.7733 0.265945 12.4346C0.265945 17.3655 0.271399 18.8073 0.295035 19.0873C0.37685 20.0728 0.531391 20.6928 0.858654 21.371C1.48409 22.6692 2.6786 23.6437 4.08583 24.0073C4.57309 24.1328 5.11125 24.2019 5.80214 24.2346C6.09486 24.2473 9.0784 24.2564 12.0638 24.2564C15.0491 24.2564 18.0345 24.2528 18.3199 24.2383C19.1199 24.2006 19.5844 24.1383 20.0981 24.0055C21.5144 23.6401 22.6871 22.6801 23.3252 21.3637C23.6461 20.7019 23.8089 20.0583 23.8825 19.1243C23.8985 18.9206 23.9052 15.6739 23.9052 12.4315C23.9052 9.18862 23.898 5.94789 23.882 5.74425C23.8074 4.79516 23.6447 4.15698 23.3134 3.48243C23.0416 2.93025 22.7398 2.51789 22.3016 2.09625C21.5197 1.34934 20.5633 0.894798 19.4237 0.730434C18.8716 0.650616 18.7616 0.626979 15.9362 0.62207H12.089Z" fill="url(#paint1_radial_1170_6226)"/>
    <path d="M12.0836 3.71338C9.71348 3.71338 9.41603 3.72374 8.48515 3.76611C7.55609 3.80865 6.92192 3.95574 6.36703 4.17156C5.79305 4.39447 5.30615 4.69265 4.82108 5.17792C4.33564 5.66302 4.03747 6.14992 3.81384 6.72374C3.59748 7.27883 3.45021 7.9132 3.40839 8.84192C3.36676 9.77283 3.35585 10.0705 3.35585 12.4407C3.35585 14.8108 3.3664 15.1074 3.40858 16.0383C3.4513 16.9674 3.59839 17.6016 3.81402 18.1565C4.0371 18.7305 4.33528 19.2174 4.82053 19.7025C5.30543 20.1879 5.79232 20.4868 6.36594 20.7097C6.9212 20.9256 7.55554 21.0727 8.48442 21.1152C9.4153 21.1576 9.71257 21.1679 12.0825 21.1679C14.4528 21.1679 14.7493 21.1576 15.6802 21.1152C16.6093 21.0727 17.2442 20.9256 17.7994 20.7097C18.3732 20.4868 18.8594 20.1879 19.3443 19.7025C19.8297 19.2174 20.1279 18.7305 20.3515 18.1567C20.5661 17.6016 20.7133 16.9672 20.757 16.0385C20.7988 15.1076 20.8097 14.8108 20.8097 12.4407C20.8097 10.0705 20.7988 9.77302 20.757 8.84211C20.7133 7.91302 20.5661 7.27883 20.3515 6.72392C20.1279 6.14992 19.8297 5.66302 19.3443 5.17792C18.8588 4.69247 18.3734 4.39429 17.7989 4.17156C17.2425 3.95574 16.608 3.80865 15.6789 3.76611C14.7481 3.72374 14.4517 3.71338 12.0809 3.71338H12.0836ZM11.3007 5.28611C11.5331 5.28574 11.7923 5.28611 12.0836 5.28611C14.4137 5.28611 14.6899 5.29447 15.61 5.33629C16.4609 5.3752 16.9227 5.51738 17.2303 5.63683C17.6376 5.79502 17.928 5.98411 18.2332 6.28956C18.5387 6.59502 18.7277 6.88592 18.8863 7.2932C19.0057 7.60047 19.1481 8.06229 19.1868 8.9132C19.2286 9.8332 19.2377 10.1096 19.2377 12.4387C19.2377 14.7677 19.2286 15.0441 19.1868 15.9641C19.1479 16.815 19.0057 17.2768 18.8863 17.5841C18.7281 17.9914 18.5387 18.2814 18.2332 18.5867C17.9278 18.8921 17.6378 19.0812 17.2303 19.2394C16.9231 19.3594 16.4609 19.5012 15.61 19.5401C14.6901 19.5819 14.4137 19.591 12.0836 19.591C9.75329 19.591 9.47712 19.5819 8.55715 19.5401C7.70626 19.5008 7.24446 19.3587 6.93665 19.2392C6.52939 19.081 6.23849 18.8919 5.93304 18.5865C5.6276 18.281 5.43851 17.9908 5.27997 17.5834C5.16052 17.2761 5.01816 16.8143 4.97944 15.9634C4.93762 15.0434 4.92926 14.767 4.92926 12.4365C4.92926 10.1059 4.93762 9.83102 4.97944 8.91102C5.01835 8.06011 5.16052 7.59829 5.27997 7.29065C5.43815 6.88338 5.6276 6.59247 5.93304 6.28702C6.23849 5.98156 6.52939 5.79247 6.93665 5.63392C7.24428 5.51392 7.70626 5.37211 8.55715 5.33302C9.36221 5.29665 9.6742 5.28574 11.3007 5.28392V5.28611ZM16.742 6.7352C16.1638 6.7352 15.6947 7.20374 15.6947 7.78211C15.6947 8.36029 16.1638 8.82938 16.742 8.82938C17.3202 8.82938 17.7892 8.36029 17.7892 7.78211C17.7892 7.20392 17.3202 6.73483 16.742 6.73483V6.7352ZM12.0836 7.95883C9.60857 7.95883 7.6019 9.96556 7.6019 12.4407C7.6019 14.9157 9.60857 16.9216 12.0836 16.9216C14.5586 16.9216 16.5645 14.9157 16.5645 12.4407C16.5645 9.96556 14.5586 7.95883 12.0836 7.95883ZM12.0836 9.53156C13.6901 9.53156 14.9926 10.8339 14.9926 12.4407C14.9926 14.0472 13.6901 15.3497 12.0836 15.3497C10.4769 15.3497 9.17458 14.0472 9.17458 12.4407C9.17458 10.8339 10.4769 9.53156 12.0836 9.53156Z" fill="white"/>
  </g>
  <defs>
    <radialGradient id="paint0_radial_1170_6226" cx="0" cy="0" r="1" gradientUnits="userSpaceOnUse" gradientTransform="translate(6.54457 26.0768) rotate(-90) scale(23.4234 21.7909)">
      <stop stop-color="#FFDD55"/>
      <stop offset="0.1" stop-color="#FFDD55"/>
      <stop offset="0.5" stop-color="#FF543E"/>
      <stop offset="1" stop-color="#C837AB"/>
    </radialGradient>
    <radialGradient id="paint1_radial_1170_6226" cx="0" cy="0" r="1" gradientUnits="userSpaceOnUse" gradientTransform="translate(-3.6947 2.32465) rotate(78.678) scale(10.4705 43.1693)">
      <stop stop-color="#3771C8"/>
      <stop offset="0.128" stop-color="#3771C8"/>
      <stop offset="1" stop-color="#6600FF" stop-opacity="0"/>
    </radialGradient>
    <clipPath id="clip0_1170_6226">
      <rect width="24" height="24" fill="white" transform="translate(0.0832214 0.44043)"/>
    </clipPath>
  </defs>
</svg>