<svg xmlns="http://www.w3.org/2000/svg" width="41" height="41" viewBox="0 0 41 41" fill="none">
  <rect x="0.392578" y="0.0195312" width="40" height="40" rx="20" fill="white"/>
  <path d="M16.3926 11.0195C13.6316 11.0195 11.3926 13.2585 11.3926 16.0195V24.0195C11.3926 26.7805 13.6316 29.0195 16.3926 29.0195H24.3926C27.1536 29.0195 29.3926 26.7805 29.3926 24.0195V16.0195C29.3926 13.2585 27.1536 11.0195 24.3926 11.0195H16.3926ZM26.3926 13.0195C26.9446 13.0195 27.3926 13.4675 27.3926 14.0195C27.3926 14.5715 26.9446 15.0195 26.3926 15.0195C25.8406 15.0195 25.3926 14.5715 25.3926 14.0195C25.3926 13.4675 25.8406 13.0195 26.3926 13.0195ZM20.3926 15.0195C23.1536 15.0195 25.3926 17.2585 25.3926 20.0195C25.3926 22.7805 23.1536 25.0195 20.3926 25.0195C17.6316 25.0195 15.3926 22.7805 15.3926 20.0195C15.3926 17.2585 17.6316 15.0195 20.3926 15.0195ZM20.3926 17.0195C19.5969 17.0195 18.8339 17.3356 18.2713 17.8982C17.7086 18.4608 17.3926 19.2239 17.3926 20.0195C17.3926 20.8152 17.7086 21.5782 18.2713 22.1409C18.8339 22.7035 19.5969 23.0195 20.3926 23.0195C21.1882 23.0195 21.9513 22.7035 22.5139 22.1409C23.0765 21.5782 23.3926 20.8152 23.3926 20.0195C23.3926 19.2239 23.0765 18.4608 22.5139 17.8982C21.9513 17.3356 21.1882 17.0195 20.3926 17.0195Z" fill="#000E33"/>
</svg>