<svg xmlns="http://www.w3.org/2000/svg" width="41" height="41" viewBox="0 0 41 41" fill="none">
  <rect x="0.392578" y="0.0195312" width="40" height="40" rx="20" fill="white"/>
  <path d="M27.3926 11.0195H13.3926C12.2876 11.0195 11.3926 11.9145 11.3926 13.0195V27.0195C11.3926 28.1245 12.2876 29.0195 13.3926 29.0195H27.3926C28.4976 29.0195 29.3926 28.1245 29.3926 27.0195V13.0195C29.3926 11.9145 28.4976 11.0195 27.3926 11.0195ZM16.1306 25.0195C15.4336 25.0195 14.8686 24.4545 14.8686 23.7575V19.2805C14.8696 18.5845 15.4346 18.0195 16.1306 18.0195C16.8276 18.0195 17.3926 18.5845 17.3926 19.2815V23.7585C17.3926 24.4545 16.8276 25.0195 16.1306 25.0195ZM16.0866 16.7365C15.3156 16.7365 14.8006 16.2225 14.8006 15.5365C14.8006 14.8505 15.3146 14.3365 16.1716 14.3365C16.9426 14.3365 17.4576 14.8505 17.4576 15.5365C17.4576 16.2225 16.9436 16.7365 16.0866 16.7365ZM25.1716 25.0195C24.4976 25.0195 23.9506 24.4725 23.9506 23.7985V21.1935C23.9506 20.1355 23.2996 20.0195 23.0556 20.0195C22.8116 20.0195 21.9976 20.0545 21.9976 21.1935V23.7985C21.9976 24.4725 21.4506 25.0195 20.7766 25.0195H20.6956C20.0216 25.0195 19.4746 24.4725 19.4746 23.7985V19.2815C19.4746 18.5845 20.0396 18.0195 20.7366 18.0195C21.4336 18.0195 21.9986 18.5845 21.9986 19.2815C21.9986 19.2815 22.2806 18.0195 24.1966 18.0195C25.4156 18.0195 26.3926 18.9965 26.3926 21.1935V23.7985C26.3926 24.4725 25.8456 25.0195 25.1716 25.0195Z" fill="#000E33"/>
</svg>