<svg xmlns="http://www.w3.org/2000/svg" width="30" height="30" viewBox="0 0 30 30" fill="none">
  <path fill-rule="evenodd" clip-rule="evenodd" d="M19.4325 19.7425L20.8725 18.3025L15.9925 13.4225L12.7025 16.7125C12.3125 17.1025 11.6825 17.1025 11.2925 16.7125L5.29249 10.7025C5.10523 10.5157 5 10.262 5 9.9975C5 9.73298 5.10523 9.47933 5.29249 9.2925C5.68249 8.9025 6.31249 8.9025 6.70249 9.2925L11.9925 14.5925L15.2825 11.3025C15.6725 10.9125 16.3025 10.9125 16.6925 11.3025L22.2825 16.8825L23.7225 15.4425C24.0325 15.1325 24.5725 15.3525 24.5725 15.7925V20.0825C24.5725 20.3625 24.3525 20.5825 24.0725 20.5825H19.7825C19.3425 20.5925 19.1225 20.0525 19.4325 19.7425Z" fill="#E62E2E"/>
</svg>