<svg xmlns="http://www.w3.org/2000/svg" width="31" height="30" viewBox="0 0 31 30" fill="none">
  <path fill-rule="evenodd" clip-rule="evenodd" d="M23.2 5H7.19995C6.09995 5 5.20995 5.9 5.20995 7L5.19995 25L9.19995 21H23.2C24.3 21 25.2 20.1 25.2 19V7C25.2 5.9 24.3 5 23.2 5ZM20.2 17H10.2C9.64995 17 9.19995 16.55 9.19995 16C9.19995 15.45 9.64995 15 10.2 15H20.2C20.75 15 21.2 15.45 21.2 16C21.2 16.55 20.75 17 20.2 17ZM20.2 14H10.2C9.64995 14 9.19995 13.55 9.19995 13C9.19995 12.45 9.64995 12 10.2 12H20.2C20.75 12 21.2 12.45 21.2 13C21.2 13.55 20.75 14 20.2 14ZM20.2 11H10.2C9.64995 11 9.19995 10.55 9.19995 10C9.19995 9.45 9.64995 9 10.2 9H20.2C20.75 9 21.2 9.45 21.2 10C21.2 10.55 20.75 11 20.2 11Z" fill="#C3CAD9"/>
</svg>