<svg xmlns="http://www.w3.org/2000/svg" width="17" height="16" viewBox="0 0 17 16" fill="none">
  <g clip-path="url(#clip0_1462_2660)">
    <path d="M6.27208 6.00016C6.42881 5.55461 6.73818 5.1789 7.14538 4.93958C7.55258 4.70027 8.03134 4.61279 8.49686 4.69264C8.96238 4.77249 9.38462 5.01451 9.6888 5.37585C9.99297 5.73718 10.1594 6.19451 10.1587 6.66683C10.1587 8.00016 8.15874 8.66683 8.15874 8.66683M8.21208 11.3335H8.21874M14.8787 8.00016C14.8787 11.6821 11.894 14.6668 8.21208 14.6668C4.53018 14.6668 1.54541 11.6821 1.54541 8.00016C1.54541 4.31826 4.53018 1.3335 8.21208 1.3335C11.894 1.3335 14.8787 4.31826 14.8787 8.00016Z" stroke="#667085" stroke-width="1.33333" stroke-linecap="round" stroke-linejoin="round"/>
  </g>
  <defs>
    <clipPath id="clip0_1462_2660">
      <rect width="16" height="16" fill="white" transform="translate(0.211914)"/>
    </clipPath>
  </defs>
</svg>