<svg width="89" height="17" viewBox="0 0 89 17" fill="none" xmlns="http://www.w3.org/2000/svg">
<g clip-path="url(#clip0_1389_2331)">
<path d="M8.79711 12.3058L4.09511 14.9378L5.14511 9.65249L1.18845 5.99382L6.53978 5.35915L8.79711 0.46582L11.0544 5.35915L16.4058 5.99382L12.4491 9.65249L13.4991 14.9378L8.79711 12.3058Z" fill="#FFA800"/>
</g>
<g clip-path="url(#clip1_1389_2331)">
<path d="M26.7971 12.3058L22.0951 14.9378L23.1451 9.65249L19.1884 5.99382L24.5398 5.35915L26.7971 0.46582L29.0544 5.35915L34.4058 5.99382L30.4491 9.65249L31.4991 14.9378L26.7971 12.3058Z" fill="#FFA800"/>
</g>
<g clip-path="url(#clip2_1389_2331)">
<path d="M44.7971 12.3058L40.0951 14.9378L41.1451 9.65249L37.1884 5.99382L42.5398 5.35915L44.7971 0.46582L47.0544 5.35915L52.4058 5.99382L48.4491 9.65249L49.4991 14.9378L44.7971 12.3058Z" fill="#FFA800"/>
</g>
<g clip-path="url(#clip3_1389_2331)">
<path d="M62.7971 12.3058L58.0951 14.9378L59.1451 9.65249L55.1884 5.99382L60.5398 5.35915L62.7971 0.46582L65.0544 5.35915L70.4058 5.99382L66.4491 9.65249L67.4991 14.9378L62.7971 12.3058ZM62.7971 10.7778L65.6284 12.3625L64.9958 9.18049L67.3778 6.97715L64.1558 6.59515L62.7971 3.64915L61.4384 6.59582L58.2164 6.97715L60.5984 9.18049L59.9658 12.3625L62.7971 10.7778Z" fill="#FFA800"/>
</g>
<g clip-path="url(#clip4_1389_2331)">
<path d="M80.7971 12.3058L76.0951 14.9378L77.1451 9.65249L73.1884 5.99382L78.5398 5.35915L80.7971 0.46582L83.0544 5.35915L88.4058 5.99382L84.4491 9.65249L85.4991 14.9378L80.7971 12.3058ZM80.7971 10.7778L83.6284 12.3625L82.9958 9.18049L85.3778 6.97715L82.1558 6.59515L80.7971 3.64915L79.4384 6.59582L76.2164 6.97715L78.5984 9.18049L77.9658 12.3625L80.7971 10.7778Z" fill="#FFA800"/>
</g>
<defs>
<clipPath id="clip0_1389_2331">
<rect width="16" height="16" fill="white" transform="translate(0.797119 0.132812)"/>
</clipPath>
<clipPath id="clip1_1389_2331">
<rect width="16" height="16" fill="white" transform="translate(18.7971 0.132812)"/>
</clipPath>
<clipPath id="clip2_1389_2331">
<rect width="16" height="16" fill="white" transform="translate(36.7971 0.132812)"/>
</clipPath>
<clipPath id="clip3_1389_2331">
<rect width="16" height="16" fill="white" transform="translate(54.7971 0.132812)"/>
</clipPath>
<clipPath id="clip4_1389_2331">
<rect width="16" height="16" fill="white" transform="translate(72.7971 0.132812)"/>
</clipPath>
</defs>
</svg>
