<svg xmlns="http://www.w3.org/2000/svg" width="24" height="25" viewBox="0 0 24 25" fill="none">
  <path fill-rule="evenodd" clip-rule="evenodd" d="M18.5678 20.3318C16.7296 21.8838 14.3538 22.8194 11.7596 22.8194C5.92769 22.8194 1.2 18.0917 1.2 12.2598C1.2 6.42788 5.92769 1.7002 11.7596 1.7002C17.5915 1.7002 22.3192 6.42788 22.3192 12.2598C22.3192 14.854 21.3836 17.2298 19.8316 19.068C19.8703 19.096 19.9073 19.1274 19.9422 19.1624L22.5349 21.7551C22.8883 22.1086 22.8883 22.6816 22.5349 23.0351C22.1814 23.3885 21.6084 23.3885 21.2549 23.0351L18.6622 20.4424C18.6272 20.4075 18.5958 20.3705 18.5678 20.3318ZM20.509 12.2598C20.509 17.0919 16.5917 21.0092 11.7596 21.0092C6.92744 21.0092 3.01021 17.0919 3.01021 12.2598C3.01021 7.42764 6.92744 3.51041 11.7596 3.51041C16.5917 3.51041 20.509 7.42764 20.509 12.2598Z" fill="#00467A"/>
</svg>