<svg xmlns="http://www.w3.org/2000/svg" width="31" height="31" viewBox="0 0 31 31" fill="none">
  <path fill-rule="evenodd" clip-rule="evenodd" d="M19.0006 17.3649H18.2106L17.9306 17.0949C19.1306 15.6949 19.7506 13.7849 19.4106 11.7549C18.9406 8.97488 16.6206 6.75488 13.8206 6.41488C9.59063 5.89488 6.03063 9.45488 6.55063 13.6849C6.89063 16.4849 9.11063 18.8049 11.8906 19.2749C13.9206 19.6149 15.8306 18.9949 17.2306 17.7949L17.5006 18.0749V18.8649L21.7506 23.1149C22.1606 23.5249 22.8306 23.5249 23.2406 23.1149C23.6506 22.7049 23.6506 22.0349 23.2406 21.6249L19.0006 17.3649ZM13.0006 17.3649C10.5106 17.3649 8.50063 15.3549 8.50063 12.8649C8.50063 10.3749 10.5106 8.36488 13.0006 8.36488C15.4906 8.36488 17.5006 10.3749 17.5006 12.8649C17.5006 15.3549 15.4906 17.3649 13.0006 17.3649Z" fill="#C3CAD9"/>
</svg>