<svg width="24" height="25" viewBox="0 0 24 25" fill="none" xmlns="http://www.w3.org/2000/svg">
  <path d="M18.031 17.1419L22.314 21.4239L20.899 22.8389L16.617 18.5559C15.0237 19.8331 13.042 20.5278 11 20.5249C6.032 20.5249 2 16.4929 2 11.5249C2 6.5569 6.032 2.5249 11 2.5249C15.968 2.5249 20 6.5569 20 11.5249C20.0029 13.5669 19.3082 15.5486 18.031 17.1419ZM16.025 16.3999C17.2941 15.0948 18.0029 13.3453 18 11.5249C18 7.6569 14.867 4.5249 11 4.5249C7.132 4.5249 4 7.6569 4 11.5249C4 15.3919 7.132 18.5249 11 18.5249C12.8204 18.5278 14.5699 17.819 15.875 16.5499L16.025 16.3999Z" fill="white"/>
</svg>