<svg xmlns="http://www.w3.org/2000/svg" width="31" height="30" viewBox="0 0 31 30" fill="none">
  <path fill-rule="evenodd" clip-rule="evenodd" d="M9.80005 16H21.8C22.35 16 22.8 15.55 22.8 15C22.8 14.45 22.35 14 21.8 14H9.80005C9.25005 14 8.80005 14.45 8.80005 15C8.80005 15.55 9.25005 16 9.80005 16ZM7.80005 20H19.8C20.35 20 20.8 19.55 20.8 19C20.8 18.45 20.35 18 19.8 18H7.80005C7.25005 18 6.80005 18.45 6.80005 19C6.80005 19.55 7.25005 20 7.80005 20ZM10.8 11C10.8 11.55 11.25 12 11.8 12H23.8C24.35 12 24.8 11.55 24.8 11C24.8 10.45 24.35 10 23.8 10H11.8C11.25 10 10.8 10.45 10.8 11Z" fill="#C3CAD9"/>
</svg>