<svg xmlns="http://www.w3.org/2000/svg" width="30" height="30" viewBox="0 0 30 30" fill="none">
  <path fill-rule="evenodd" clip-rule="evenodd" d="M16.5515 6.00349C11.4615 5.86349 7.29153 9.95349 7.29153 15.0035H5.50153C5.05153 15.0035 4.83153 15.5435 5.15153 15.8535L7.94153 18.6535C8.14153 18.8535 8.45153 18.8535 8.65153 18.6535L11.4415 15.8535C11.7515 15.5435 11.5315 15.0035 11.0815 15.0035H9.29153C9.29153 11.1035 12.4715 7.95349 16.3915 8.00349C20.1115 8.05349 23.2415 11.1835 23.2915 14.9035C23.3415 18.8135 20.1915 22.0035 16.2915 22.0035C14.6815 22.0035 13.1915 21.4535 12.0115 20.5235C11.6115 20.2135 11.0515 20.2435 10.6915 20.6035C10.2715 21.0235 10.3015 21.7335 10.7715 22.0935C12.2915 23.2935 14.2015 24.0035 16.2915 24.0035C21.3415 24.0035 25.4315 19.8335 25.2915 14.7435C25.1615 10.0535 21.2415 6.13349 16.5515 6.00349ZM16.0415 11.0035C15.6315 11.0035 15.2915 11.3435 15.2915 11.7535V15.4335C15.2915 15.7835 15.4815 16.1135 15.7815 16.2935L18.9015 18.1435C19.2615 18.3535 19.7215 18.2335 19.9315 17.8835C20.1415 17.5235 20.0215 17.0635 19.6715 16.8535L16.7915 15.1435V11.7435C16.7915 11.3435 16.4515 11.0035 16.0415 11.0035Z" fill="#29CC39"/>
</svg>