<svg xmlns="http://www.w3.org/2000/svg" width="31" height="30" viewBox="0 0 31 30" fill="none">
  <path fill-rule="evenodd" clip-rule="evenodd" d="M17.1515 6.0035C12.0615 5.8635 7.89151 9.9435 7.89151 15.0035H6.10151C5.65151 15.0035 5.43151 15.5435 5.75151 15.8535L8.54151 18.6535C8.74151 18.8535 9.05151 18.8535 9.25151 18.6535L12.0415 15.8535C12.3615 15.5435 12.1315 15.0035 11.6915 15.0035H9.89151C9.89151 11.1035 13.0715 7.9535 16.9915 8.0035C20.7115 8.0535 23.8415 11.1835 23.8915 14.9035C23.9415 18.8135 20.7915 22.0035 16.8915 22.0035C15.2815 22.0035 13.7915 21.4535 12.6115 20.5235C12.2115 20.2135 11.6515 20.2435 11.2915 20.6035C10.8715 21.0335 10.9015 21.7335 11.3715 22.1035C12.8915 23.2935 14.8115 24.0035 16.8915 24.0035C21.9415 24.0035 26.0315 19.8335 25.8915 14.7435C25.7615 10.0535 21.8415 6.1335 17.1515 6.0035ZM16.6415 11.0035C16.2315 11.0035 15.8915 11.3435 15.8915 11.7535V15.4335C15.8915 15.7835 16.0815 16.1135 16.3815 16.2935L19.5015 18.1435C19.8615 18.3535 20.3215 18.2335 20.5315 17.8835C20.7415 17.5235 20.6215 17.0635 20.2715 16.8535L17.3915 15.1435V11.7435C17.3915 11.3435 17.0615 11.0035 16.6415 11.0035Z" fill="#C3CAD9"/>
</svg>