<svg xmlns="http://www.w3.org/2000/svg" width="31" height="30" viewBox="0 0 31 30" fill="none">
  <path fill-rule="evenodd" clip-rule="evenodd" d="M18.4 15C20.61 15 22.4 13.21 22.4 11C22.4 8.79 20.61 7 18.4 7C16.19 7 14.4 8.79 14.4 11C14.4 13.21 16.19 15 18.4 15ZM9.40002 13V11C9.40002 10.45 8.95002 10 8.40002 10C7.85002 10 7.40002 10.45 7.40002 11V13H5.40002C4.85002 13 4.40002 13.45 4.40002 14C4.40002 14.55 4.85002 15 5.40002 15H7.40002V17C7.40002 17.55 7.85002 18 8.40002 18C8.95002 18 9.40002 17.55 9.40002 17V15H11.4C11.95 15 12.4 14.55 12.4 14C12.4 13.45 11.95 13 11.4 13H9.40002ZM18.4 17C15.73 17 10.4 18.34 10.4 21V22C10.4 22.55 10.85 23 11.4 23H25.4C25.95 23 26.4 22.55 26.4 22V21C26.4 18.34 21.07 17 18.4 17Z" fill="#C3CAD9"/>
</svg>