<svg xmlns="http://www.w3.org/2000/svg" width="41" height="41" viewBox="0 0 41 41" fill="none">
  <rect x="0.392578" y="0.0195312" width="40" height="40" rx="20" fill="white"/>
  <path d="M28.412 15.0445C27.8208 15.307 27.187 15.4832 26.5208 15.5632C27.2008 15.1557 27.7233 14.5107 27.9683 13.7432C27.3333 14.1195 26.627 14.3932 25.8783 14.5407C25.2783 13.9007 24.4233 13.502 23.477 13.502C21.6595 13.502 20.1858 14.9745 20.1858 16.792C20.1858 17.0495 20.2158 17.3007 20.272 17.542C17.537 17.4045 15.1133 16.0945 13.4895 14.1032C13.2058 14.5907 13.0445 15.1557 13.0445 15.7582C13.0445 16.8995 13.6245 17.907 14.5083 18.4982C13.9683 18.4807 13.4608 18.332 13.017 18.0857C13.017 18.0995 13.017 18.1132 13.017 18.127C13.017 19.722 14.152 21.0507 15.6558 21.3545C15.3808 21.4295 15.0895 21.4695 14.7895 21.4695C14.577 21.4695 14.3708 21.4495 14.1695 21.4095C14.5895 22.7157 15.8045 23.6695 17.2433 23.6957C16.1183 24.5782 14.6995 25.1032 13.157 25.1032C12.8908 25.1032 12.6295 25.0882 12.3733 25.057C13.8283 25.992 15.5583 26.5357 17.417 26.5357C23.4695 26.5357 26.7795 21.522 26.7795 17.1745C26.7795 17.032 26.7758 16.8882 26.7708 16.7482C27.4133 16.2845 27.9708 15.7045 28.412 15.0445Z" fill="#000E33"/>
</svg>